# xmcd
#
# Track frame offsets: 
#        150
#        14075
#        32081
#        46582
#        62725
#        79863
#        97011
#        114891
#        128031
#        141642
#        166985
#        188072
#        203659
#        215458
#        228813
#        243092
#        257315
#        272225
#        284341
#        299280
#
# Disc length: 4232 seconds
#
# Revision: 7
# Processed by: cddbd v1.5.2PL0 Copyright (c) Steve Scherf et al.
# Submitted via: ExactAudioCopyFreeDBPlugin 1.0
#
DISCID=1b108614
DTITLE=Various Artist - New Country Collection CD3
DYEAR=2007
DGENRE=Country
TTITLE0=Collin Raye - That's My Story
TTITLE1=Travis Tritt - Southbound Train
TTITLE2=Alan Jackson - Summertime Blues
TTITLE3=Terri Clark - Girls Lie Too
TTITLE4=Joe Diffie - Prop Me Up Beside the Jukebox (If I Die)
TTITLE5=Tracy Lawrence - Find Out Who Your Friends Are
TTITLE6=Wynonna - No One Else on Earth
TTITLE7=Sawyer Brown - Six Days on the Road
TTITLE8=Tim McGraw - Indian Outlaw
TTITLE9=Sara Evans - Born to Fly
TTITLE10=Alabama featuring 'N Sync - God Must Have Spent a Little More
TTITLE10=Time on You
TTITLE11=Martina McBride - Independence Day
TTITLE12=John Carter Cash - Mongolian King
TTITLE13=Roy Rivers - All Caught Up
TTITLE14=Kentucky Headhunters - Oh Lonesome Me
TTITLE15=Pam Tillis - Shake the Sugar Tree
TTITLE16=Billy Ray Cyrus - Burn Down the Trailer Park
TTITLE17=Yankee Grey - All Things Considered
TTITLE18=Brad Paisley - Long Sermon
TTITLE19=Mindy McCready - You'll Never Know
EXTD=YEAR: 2007
EXTT0=
EXTT1=
EXTT2=
EXTT3=
EXTT4=
EXTT5=
EXTT6=
EXTT7=
EXTT8=
EXTT9=
EXTT10=
EXTT11=
EXTT12=
EXTT13=
EXTT14=
EXTT15=
EXTT16=
EXTT17=
EXTT18=
EXTT19=
PLAYORDER=
